<?xml version="1.0" encoding="UTF-8"?>
<svg version="1.1" xmlns="http://www.w3.org/2000/svg" width="256" height="256">
<path d="M0 0 C0.98547821 -0.03865677 1.97095642 -0.07731354 2.98629761 -0.11714172 C7.53713986 -0.25454067 12.08788959 -0.35338635 16.64013672 -0.43066406 C19.03236479 -0.48221234 21.42421424 -0.55707351 23.81494141 -0.65625 C44.75584153 -1.50940855 44.75584153 -1.50940855 50.36743164 2.88793945 C53.22808158 5.7023667 55.34638446 8.84426139 57.37939453 12.30395508 C60.62570711 17.42023821 60.62570711 17.42023821 65.92933655 19.93199158 C67.50575172 20.12566063 67.50575172 20.12566063 69.11401367 20.32324219 C71.00169968 20.55972977 71.00169968 20.55972977 72.92752075 20.80099487 C74.41127913 20.97040519 75.89525331 21.1379321 77.37939453 21.30395508 C78.203643 21.39823414 79.02789146 21.4925132 79.87711716 21.5896492 C86.8521667 22.38370627 93.83224406 23.12836274 100.81298828 23.87036133 C103.06310149 24.11148049 105.31318751 24.35285357 107.56324768 24.59446716 C113.44727874 25.22578113 119.33159576 25.85438472 125.21600342 26.48217773 C134.65690646 27.48968533 144.09744963 28.50054623 153.53782845 29.5129528 C156.82306399 29.86474755 160.10847381 30.21487839 163.39390564 30.56483459 C165.41047762 30.78063426 167.42704389 30.99648731 169.44360352 31.21240234 C170.35021729 31.3085231 171.25683105 31.40464386 172.19091797 31.50367737 C176.93710422 32.01344092 181.65859053 32.59595583 186.37939453 33.30395508 C184.93767674 61.18739066 184.93767674 61.18739066 183.37939453 64.30395508 C184.06904297 64.32973633 184.75869141 64.35551758 185.46923828 64.38208008 C195.19754833 64.96924831 202.37082609 67.56924013 209.58642578 74.23754883 C215.74095061 81.33067222 217.69566423 89.27867103 217.59814453 98.42114258 C216.93763994 107.12564954 213.02936628 113.96962577 206.75439453 119.92895508 C199.3964421 126.04025627 192.06967906 128.03645403 182.55126953 127.67895508 C173.18363575 126.57145158 166.79424183 122.03677972 160.37939453 115.30395508 C159.71939453 114.31395508 159.05939453 113.32395508 158.37939453 112.30395508 C155.80963902 111.98767692 153.47493851 111.86653129 150.90039062 111.87158203 C150.1295665 111.86139038 149.35874237 111.85119873 148.56455994 111.84069824 C146.01057788 111.81044572 143.45697009 111.80128388 140.90283203 111.79223633 C139.13447816 111.77539868 137.36613633 111.75724969 135.59780884 111.73783875 C130.93879965 111.69023315 126.27983923 111.6604923 121.6206665 111.63439941 C116.86826947 111.60464697 112.11604072 111.5580985 107.36376953 111.51293945 C98.03573236 111.42678634 88.70766067 111.35949466 79.37939453 111.30395508 C79.40217834 114.57633538 79.47945218 117.84521411 79.56689453 121.11645508 C79.57269531 122.04522461 79.57849609 122.97399414 79.58447266 123.9309082 C79.66734522 126.48154156 79.79488481 128.81877901 80.37939453 131.30395508 C82.66912894 133.21953853 82.66912894 133.21953853 85.37939453 134.30395508 C85.81574219 135.17713379 86.25208984 136.0503125 86.70166016 136.94995117 C88.250466 139.70038303 88.250466 139.70038303 91.88525391 139.95092773 C93.33085249 139.98390869 94.77730475 139.98777432 96.22314453 139.96801758 C96.98864624 139.97280121 97.75414795 139.97758484 98.54284668 139.98251343 C100.16009579 139.98591343 101.77741353 139.97670354 103.39453125 139.95581055 C105.87151162 139.92904027 108.34396151 139.95554832 110.82080078 139.98754883 C112.39242538 139.98424474 113.96404715 139.97783851 115.53564453 139.96801758 C116.27633179 139.97813873 117.01701904 139.98825989 117.78015137 139.99868774 C120.1243633 140.00070831 120.1243633 140.00070831 123.37939453 139.30395508 C125.31602971 136.97213833 125.31602971 136.97213833 126.37939453 134.30395508 C129.47852608 131.56942724 131.85919264 131.06114702 135.87939453 131.24145508 C139.36860042 131.75405962 141.13626786 132.5614104 143.44189453 135.24145508 C145.37939453 138.30395508 145.37939453 138.30395508 145.37939453 140.30395508 C148.34939453 140.30395508 151.31939453 140.30395508 154.37939453 140.30395508 C154.42064453 139.56145508 154.46189453 138.81895508 154.50439453 138.05395508 C155.37939453 135.30395508 155.37939453 135.30395508 158.00439453 132.99145508 C161.89961979 131.04384245 164.07892359 130.75662241 168.37939453 131.30395508 C171.91809393 132.95534813 173.19009606 134.02000737 175.37939453 137.30395508 C175.92541487 140.69502879 175.92567377 143.91269684 175.37939453 147.30395508 C173.18916536 150.12819796 171.54922246 151.71904111 168.37939453 153.30395508 C166.1622467 153.39850428 163.94215425 153.42585342 161.72299194 153.42420959 C160.68524815 153.42549123 160.68524815 153.42549123 159.62653983 153.42679876 C157.29722456 153.42845217 154.96798056 153.42293446 152.63867188 153.41748047 C150.97337343 153.41719854 149.30807486 153.41735644 147.64277649 153.41792297 C143.11203686 153.41821073 138.58132353 153.41231751 134.05059004 153.40534902 C129.31934205 153.39911187 124.58809351 153.39851139 119.85684204 153.39732361 C110.89312149 153.39421136 101.92941308 153.3859994 92.96569788 153.37597412 C82.76270339 153.36480968 72.55970832 153.3593017 62.35670924 153.35427868 C41.36426422 153.34381671 20.37183014 153.32621932 -0.62060547 153.30395508 C-0.62060547 151.98395508 -0.62060547 150.66395508 -0.62060547 149.30395508 C11.58939453 149.30395508 23.79939453 149.30395508 36.37939453 149.30395508 C35.71939453 146.66395508 35.05939453 144.02395508 34.37939453 141.30395508 C35.53784978 137.14714508 36.45847358 135.01766881 39.87939453 132.36645508 C42.37939453 131.30395508 42.37939453 131.30395508 45.37939453 131.30395508 C46.3556104 110.35173991 40.56062114 90.86727499 35.08154297 70.85717773 C33.7539592 66.00329234 32.48367715 61.13637616 31.22751045 56.26359177 C30.2395594 52.46425732 29.21686021 48.67491566 28.18429184 44.88748932 C27.70139824 43.0967103 27.23005988 41.30276799 26.77136612 39.50563812 C23.87455638 28.23572431 20.6246782 18.87474878 10.37939453 12.30395508 C6.83585583 11.53760183 3.84168394 11.28841041 0.22705078 11.42895508 C-3.05758385 11.28477359 -4.24601617 10.50116542 -6.62060547 8.30395508 C-5.59150905 0.2181975 -5.59150905 0.2181975 0 0 Z M47.37939453 9.30395508 C46.38939453 9.79895508 46.38939453 9.79895508 45.37939453 10.30395508 C43.2026467 10.45864875 41.02155973 10.55397614 38.84033203 10.62036133 C36.88740234 10.68320313 36.88740234 10.68320313 34.89501953 10.74731445 C33.51481408 10.78712807 32.1346057 10.8268403 30.75439453 10.86645508 C29.36636038 10.90964915 27.97833926 10.95326373 26.59033203 10.99731445 C23.18679197 11.10367508 19.78317675 11.20570222 16.37939453 11.30395508 C17.33669369 12.42983522 18.29527348 13.55462657 19.25439453 14.67895508 C20.05490234 15.61868164 20.05490234 15.61868164 20.87158203 16.57739258 C23.53531921 19.81756459 23.53531921 19.81756459 27.63574219 20.53100586 C29.02168748 20.5306889 30.40765754 20.51937266 31.79345703 20.49926758 C32.88791641 20.49502274 32.88791641 20.49502274 34.00448608 20.49069214 C36.33795481 20.4794851 38.67104156 20.45438018 41.00439453 20.42895508 C42.58511816 20.41892593 44.1658478 20.40979996 45.74658203 20.40161133 C49.62433367 20.37954413 53.50179931 20.34501123 57.37939453 20.30395508 C56.47006444 19.02786185 55.551566 17.75829955 54.62939453 16.49145508 C54.11892578 15.78375977 53.60845703 15.07606445 53.08251953 14.34692383 C51.35457095 12.27417817 49.59412977 10.83019654 47.37939453 9.30395508 Z M49.37939453 111.30395508 C49.37939453 118.23395508 49.37939453 125.16395508 49.37939453 132.30395508 C51.35939453 133.29395508 51.35939453 133.29395508 53.37939453 134.30395508 C55.12939453 137.42895508 55.12939453 137.42895508 56.37939453 140.30395508 C59.77828581 140.6542225 62.99382408 140.83345188 66.37939453 140.30395508 C68.7897202 137.56347648 68.7897202 137.56347648 70.37939453 134.30395508 C71.23275391 133.95333008 72.08611328 133.60270508 72.96533203 133.24145508 C75.56122129 131.58639926 75.56122129 131.58639926 75.78540039 129.19384766 C75.87263608 126.48177565 75.81328575 123.82809852 75.69189453 121.11645508 C75.53720703 116.25926758 75.53720703 116.25926758 75.37939453 111.30395508 C66.79939453 111.30395508 58.21939453 111.30395508 49.37939453 111.30395508 Z M56.37939453 144.30395508 C56.04939453 145.95395508 55.71939453 147.60395508 55.37939453 149.30395508 C59.66939453 149.30395508 63.95939453 149.30395508 68.37939453 149.30395508 C67.71939453 147.65395508 67.05939453 146.00395508 66.37939453 144.30395508 C63.07939453 144.30395508 59.77939453 144.30395508 56.37939453 144.30395508 Z M88.37939453 144.30395508 C87.71939453 145.95395508 87.05939453 147.60395508 86.37939453 149.30395508 C99.24939453 149.30395508 112.11939453 149.30395508 125.37939453 149.30395508 C124.71939453 147.65395508 124.05939453 146.00395508 123.37939453 144.30395508 C111.82939453 144.30395508 100.27939453 144.30395508 88.37939453 144.30395508 Z M145.37939453 144.30395508 C144.71939453 145.95395508 144.05939453 147.60395508 143.37939453 149.30395508 C147.33939453 149.30395508 151.29939453 149.30395508 155.37939453 149.30395508 C155.04939453 147.65395508 154.71939453 146.00395508 154.37939453 144.30395508 C151.40939453 144.30395508 148.43939453 144.30395508 145.37939453 144.30395508 Z " fill="#606377" transform="translate(22.62060546875,70.696044921875)"/>
<path d="M0 0 C2.81299075 0.11733661 5.62514093 0.24388769 8.4375 0.375 C9.5831543 0.42140625 9.5831543 0.42140625 10.75195312 0.46875 C16.74422616 0.75753424 22.66716295 1.39243658 28.62158203 2.11619568 C35.33465314 2.93090226 42.05441511 3.67374425 48.77734375 4.40234375 C49.92204636 4.52667786 51.06674896 4.65101196 52.24613953 4.77911377 C56.98861023 5.29376841 61.73123386 5.80700507 66.47387695 6.32006836 C83.32419867 8.14428309 100.1656748 10.03343072 117 12 C117.0006829 14.22710254 117.00088436 16.45420233 117.00012207 18.68130493 C117.0000329 20.37502182 117.00264469 22.06873947 117.00683594 23.76245117 C116.88928877 35.69732166 116.88928877 35.69732166 115 41 C112.09823713 43.74654227 109.82594244 44.79696737 106.04296875 46 C100.49686067 47.82259778 97.59563563 51.09761468 94.75 56.0625 C93.99976563 57.34833984 93.99976563 57.34833984 93.234375 58.66015625 C91.02148035 62.85485213 90.86501043 66.12239782 90.875 70.8125 C90.87242187 72.01519531 90.86984375 73.21789062 90.8671875 74.45703125 C90.94083169 78.43021263 90.94083169 78.43021263 92 84 C65.93 84 39.86 84 13 84 C9.75564298 64.19516126 9.75564298 64.19516126 8.37890625 55.7578125 C7.43916725 49.99872221 6.4987343 44.23975122 5.55419922 38.48144531 C4.7928148 33.83943666 4.03451762 29.19693334 3.27836609 24.55406952 C2.98921297 22.78206126 2.69894441 21.01023464 2.407547 19.23859406 C1.99987095 16.75881696 1.5961512 14.278426 1.19335938 11.79785156 C1.07179977 11.06417358 0.95024017 10.33049561 0.82499695 9.57458496 C0.29933324 6.31330661 0 3.31703167 0 0 Z " fill="#F3F3F4" transform="translate(88,95)"/>
<path d="M0 0 C11.55 0 23.1 0 35 0 C36.31557996 5.26231986 37.4548007 10.24522066 38.32861328 15.56176758 C38.44594818 16.27012756 38.56328308 16.97848755 38.68417358 17.70831299 C39.06616957 20.01985877 39.4433809 22.33215471 39.8203125 24.64453125 C40.08627484 26.26262503 40.352463 27.88068171 40.61886597 29.498703 C41.17396621 32.87468827 41.72676475 36.25103969 42.27783203 39.62768555 C42.98452597 43.95713085 43.69635537 48.28571277 44.40980721 52.61404896 C44.95893289 55.94826343 45.50569081 59.28286269 46.05169296 62.61758995 C46.31338956 64.21451236 46.57574811 65.81132645 46.83877945 67.40802956 C47.20493874 69.63337655 47.56798834 71.85920868 47.93017578 74.08520508 C48.24089523 75.98427361 48.24089523 75.98427361 48.55789185 77.92170715 C49 81 49 81 49 84 C40.09 84 31.18 84 22 84 C18.22550399 70.50331729 14.55737466 56.98033281 10.92480469 43.44482422 C9.36911971 37.65002089 7.80953908 31.85626704 6.25 26.0625 C5.96850098 25.01578125 5.68700195 23.9690625 5.39697266 22.890625 C5.12675293 21.88644531 4.8565332 20.88226563 4.578125 19.84765625 C4.31837891 18.87973145 4.05863281 17.91180664 3.79101562 16.91455078 C3.24706775 14.91033792 2.69311184 12.90882295 2.13085938 10.90966797 C1.85564453 9.92756348 1.58042969 8.94545898 1.296875 7.93359375 C1.04776367 7.05630615 0.79865234 6.17901855 0.54199219 5.27514648 C0 3 0 3 0 0 Z " fill="#F3F3F3" transform="translate(49,95)"/>
<path d="M0 0 C5.91860491 3.65522633 9.82510688 9.47532063 12 16 C12.72202251 25.18000051 13.30352383 33.61543706 7 41 C1.73324358 46.6083243 -3.47560614 50.61621032 -11.26953125 51.27734375 C-21.80173799 51.55775394 -28.45793076 50.17215543 -36.23828125 42.97265625 C-42.08019217 36.43127041 -43.42529368 28.96128008 -43.33984375 20.42578125 C-42.57969447 12.76312703 -38.5629221 6.59352913 -32.93359375 1.47265625 C-22.86548658 -6.19537689 -10.91146053 -5.95348025 0 0 Z " fill="#F3F2F1" transform="translate(224,143)"/>
<path d="M0 0 C1.7143618 1.95927063 3.38405168 3.95880212 5 6 C9.37859255 5.49477778 11.81651224 2.82172778 15 0 C18.465 3.465 18.465 3.465 22 7 C20.21844267 10.56311466 18.83236991 12.35645475 16 15 C17.52708963 18.43595166 19.59927045 21.11912454 22 24 C20.88121617 25.17262904 19.75476949 26.33795138 18.625 27.5 C17.99851563 28.1496875 17.37203125 28.799375 16.7265625 29.46875 C15 31 15 31 13 31 C11.2856382 29.04072937 9.61594832 27.04119788 8 25 C4.63408134 26.44253657 2.48952921 28.33264727 0 31 C-4.2742558 29.4169423 -6.26531794 26.49431596 -9 23 C-8.55527344 22.61328125 -8.11054688 22.2265625 -7.65234375 21.828125 C-7.08644531 21.30734375 -6.52054688 20.7865625 -5.9375 20.25 C-5.36902344 19.73953125 -4.80054688 19.2290625 -4.21484375 18.703125 C-2.77347084 17.06701822 -2.77347084 17.06701822 -3.15625 14.9375 C-4.39839572 12.08516539 -6.51742973 10.78235814 -9 9 C-7.45665977 5.21180126 -4.44676575 0 0 0 Z " fill="#E18614" transform="translate(202,151)"/>
<path d="M0 0 C3.5 -0.375 3.5 -0.375 7 0 C9.75939963 4.13909944 9.40462123 7.50894206 9.4375 12.375 C9.47037109 13.22578125 9.50324219 14.0765625 9.53710938 14.953125 C9.57512617 19.39072235 9.558011 21.32631507 6.64453125 24.84375 C5.77183594 25.5553125 4.89914063 26.266875 4 27 C2.45240132 29.0709164 2.45240132 29.0709164 1.25 31.125 C0.84265625 31.78757813 0.4353125 32.45015625 0.015625 33.1328125 C-2.13117348 37.07961894 -2.13441106 40.39400966 -2.125 44.8125 C-2.12757813 46.01519531 -2.13015625 47.21789062 -2.1328125 48.45703125 C-2.05916831 52.43021263 -2.05916831 52.43021263 -1 58 C-27.07 58 -53.14 58 -80 58 C-80 57.67 -80 57.34 -80 57 C-56.24 57 -32.48 57 -8 57 C-8.99 54.03 -8.99 54.03 -10 51 C-11.0875903 42.56485199 -9.54724786 33.77580688 -4.3984375 26.84375 C-2.25680047 22.48868922 -2.50604839 18.16685903 -2.4375 13.375 C-2.40305319 11.48680446 -2.36044172 9.59873536 -2.30859375 7.7109375 C-2.29626709 6.87868652 -2.28394043 6.04643555 -2.27124023 5.18896484 C-2 3 -2 3 0 0 Z " fill="#ACB2C6" transform="translate(181,121)"/>
<path d="M0 0 C2.15937739 1.59729104 2.91135001 2.47289571 3.36076355 5.14506531 C3.35410172 5.97335342 3.34743988 6.80164154 3.34057617 7.6550293 C3.34034958 8.59577805 3.34012299 9.53652679 3.33988953 10.50578308 C3.32440567 11.51836685 3.30892181 12.53095062 3.29296875 13.57421875 C3.28872391 14.61318802 3.28447906 15.65215729 3.28010559 16.72261047 C3.26329849 20.04450276 3.22564196 23.36579075 3.1875 26.6875 C3.17245582 28.93814229 3.15876695 31.18879407 3.14648438 33.43945312 C3.11338836 38.95984197 3.06316869 44.47987782 3 50 C0.625 50.625 0.625 50.625 -2 51 C-5.01115782 47.98884218 -4.812851 44.33223399 -5.2890625 40.265625 C-5.45128799 38.95945221 -5.45128799 38.95945221 -5.61679077 37.62689209 C-5.84428555 35.78137915 -6.0676111 33.93534827 -6.28710938 32.08886719 C-6.62212461 29.27415825 -6.97006291 26.46128705 -7.3203125 23.6484375 C-7.53983057 21.85426047 -7.75860451 20.05999221 -7.9765625 18.265625 C-8.13120468 17.00906097 -8.13120468 17.00906097 -8.28897095 15.72711182 C-9.6603902 4.10065033 -9.6603902 4.10065033 -7.875 1.125 C-5.11909116 -0.52854531 -3.14924548 -0.39365568 0 0 Z " fill="#AAB0C4" transform="translate(120,114)"/>
<path d="M0 0 C3.5 0.25 3.5 0.25 5.5 2.25 C5.70832357 4.7131198 5.7819517 7.03663593 5.75 9.5 C5.74468262 10.23710205 5.73936523 10.9742041 5.73388672 11.73364258 C5.62910241 18.15532921 5.1789429 24.540422 4.625 30.9375 C4.54668945 31.86916992 4.46837891 32.80083984 4.38769531 33.76074219 C3.93594002 38.5258086 3.27313907 42.757551 1.5 47.25 C-0.15 47.25 -1.8 47.25 -3.5 47.25 C-7.58006548 39.08986903 -5.68293098 24.909585 -5.6875 16 C-5.69974609 14.69675781 -5.71199219 13.39351562 -5.72460938 12.05078125 C-5.72654297 10.81199219 -5.72847656 9.57320312 -5.73046875 8.296875 C-5.73457764 7.18151367 -5.73868652 6.06615234 -5.74291992 4.91699219 C-5.35511384 0.6593101 -4.16572318 0.29755166 0 0 Z " fill="#AAB0C5" transform="translate(152.5,117.75)"/>
<path d="M0 0 C2.88922262 2.45583923 4.75896262 4.09610984 5.75 7.8125 C4.59687646 12.71327505 1.45712893 15.47764222 -2 19 C-2.825 19.969375 -3.65 20.93875 -4.5 21.9375 C-7.73723565 24.60821941 -9.82851587 25 -14 25 C-16.9375 23.5625 -16.9375 23.5625 -19 22 C-18.74956884 18.61917938 -17.7185873 17.7185873 -15.25 15.25 C-11.98370194 12.98871673 -10.8309219 12.43662913 -7 13 C-6.95875 11.96875 -6.9175 10.9375 -6.875 9.875 C-5.73072694 4.80750503 -3.85400704 3.36200614 0 0 Z " fill="#606477" transform="translate(194,31)"/>
<path d="M0 0 C5.59160636 -0.19543479 9.7846284 -0.14750595 15 2 C15.59554687 1.690625 16.19109375 1.38125 16.8046875 1.0625 C19.46260506 -0.22389427 21.31520692 -0.2022314 24.25 -0.125 C25.14203125 -0.10695312 26.0340625 -0.08890625 26.953125 -0.0703125 C27.96632812 -0.03550781 27.96632812 -0.03550781 29 0 C29.44423282 3.82040224 29.36159089 5.49978705 27.07421875 8.6640625 C22.84835432 11.87507511 19.67070933 11.7785615 14.5 11.6875 C13.65824219 11.71521484 12.81648437 11.74292969 11.94921875 11.77148438 C8.63318173 11.75842911 6.05484585 11.74678017 3.29296875 9.79150391 C1.06461983 7.34581251 0.04458592 5.41019049 -0.3125 2.125 C-0.209375 1.42375 -0.10625 0.7225 0 0 Z " fill="#606477" transform="translate(139,35)"/>
<path d="M0 0 C0.33 0 0.66 0 1 0 C0.99214478 1.22517334 0.99214478 1.22517334 0.98413086 2.47509766 C0.96328651 6.19172388 0.95031608 9.90833778 0.9375 13.625 C0.92493164 15.55279297 0.92493164 15.55279297 0.91210938 17.51953125 C0.90727539 19.38544922 0.90727539 19.38544922 0.90234375 21.2890625 C0.89448853 23.00150146 0.89448853 23.00150146 0.88647461 24.74853516 C0.94623133 28.47831313 0.94623133 28.47831313 2 34 C-24.07 34 -50.14 34 -77 34 C-77 33.67 -77 33.34 -77 33 C-53.24 33 -29.48 33 -5 33 C-5.99 30.03 -5.99 30.03 -7 27 C-8.27741799 17.09258375 -5.41088198 8.27197848 0 0 Z " fill="#BFC2CD" transform="translate(178,145)"/>
<path d="M0 0 C1.9375 1.0625 1.9375 1.0625 3 3 C3.36528977 6.4093712 3.6140629 8.88023824 1.9375 11.9375 C-1.11976176 13.6140629 -3.5906288 13.36528977 -7 13 C-8.9375 11.9375 -8.9375 11.9375 -10 10 C-10.36528977 6.5906288 -10.6140629 4.11976176 -8.9375 1.0625 C-5.88023824 -0.6140629 -3.4093712 -0.36528977 0 0 Z M-5 4 C-5.33 5.32 -5.66 6.64 -6 8 C-4.68 8.33 -3.36 8.66 -2 9 C-1.67 7.68 -1.34 6.36 -1 5 C-2.32 4.67 -3.64 4.34 -5 4 Z " fill="#5E6174" transform="translate(41,188)"/>
<path d="M0 0 C0.33 0 0.66 0 1 0 C1 1.98 1 3.96 1 6 C1.845625 5.525625 2.69125 5.05125 3.5625 4.5625 C7.12587329 2.94278487 10.12561425 2.38743857 14 2 C14 3.98 14 5.96 14 8 C12.04414675 9.00484204 10.08523763 10.00373805 8.125 11 C7.03445312 11.556875 5.94390625 12.11375 4.8203125 12.6875 C2 14 2 14 0 14 C0 9.38 0 4.76 0 0 Z " fill="#D9DCE1" transform="translate(189,128)"/>
<path d="M0 0 C1.12921752 5.12491027 1.12921752 5.12491027 1 8 C-1.1875 10.5625 -1.1875 10.5625 -4 13 C-5.49680485 15.26904174 -6.7258376 17.5932488 -8 20 C-8.33 20 -8.66 20 -9 20 C-10.22374413 8.69736323 -10.22374413 8.69736323 -7.25390625 4.578125 C-1.94744318 0 -1.94744318 0 0 0 Z " fill="#9198B1" transform="translate(188,136)"/>
<path d="M0 0 C0 2.31 0 4.62 0 7 C-4.33333333 9.16666667 -4.33333333 9.16666667 -7.25 8.4375 C-9 7 -9 7 -9.875 4.5625 C-10 2 -10 2 -8 -1 C-4.37673261 -2.2077558 -3.35853631 -1.54311128 0 0 Z " fill="#5D6275" transform="translate(58,169)"/>
<path d="M0 0 C0.66 0.33 1.32 0.66 2 1 C0.84810672 4.45567984 0.33882057 4.6572028 -2.6875 6.375 C-5.43522722 7.99999997 -7.90292418 9.65524313 -10.3125 11.75 C-13 14 -13 14 -16 15 C-13.44077512 8.7182662 -7.50783888 4.10470333 -1.8125 0.6875 C-0.9153125 0.3471875 -0.9153125 0.3471875 0 0 Z " fill="#6A6D80" transform="translate(198,137)"/>
<path d="M0 0 C1.32 0.66 2.64 1.32 4 2 C2.02 4.31 0.04 6.62 -2 9 C-3.32 8.34 -4.64 7.68 -6 7 C-4.02 4.69 -2.04 2.38 0 0 Z " fill="#5E6175" transform="translate(78,58)"/>
<path d="M0 0 C1.32 0 2.64 0 4 0 C4 3.3 4 6.6 4 10 C2.68 10 1.36 10 0 10 C0 6.7 0 3.4 0 0 Z " fill="#5A5D73" transform="translate(65,51)"/>
<path d="M0 0 C3.3 0 6.6 0 10 0 C10 1.32 10 2.64 10 4 C7.03 4 4.06 4 1 4 C0.67 2.68 0.34 1.36 0 0 Z " fill="#5E6372" transform="translate(78,71)"/>
<path d="M0 0 C2.125 0.375 2.125 0.375 4 1 C4.5625 2.9375 4.5625 2.9375 5 5 C4 6 4 6 1.4375 6.0625 C0.2309375 6.0315625 0.2309375 6.0315625 -1 6 C-1.625 4.125 -1.625 4.125 -2 2 C-1.34 1.34 -0.68 0.68 0 0 Z " fill="#E4E4E6" transform="translate(186,210)"/>
<path d="M0 0 C1.65 0.33 3.3 0.66 5 1 C4.67 2.65 4.34 4.3 4 6 C2.35 5.67 0.7 5.34 -1 5 C-0.67 3.35 -0.34 1.7 0 0 Z " fill="#ECECED" transform="translate(98,210)"/>
<path d="M0 0 C-1.875 3.875 -1.875 3.875 -3 5 C-4.66617115 5.04063832 -6.33388095 5.042721 -8 5 C-5.96115496 0.48541456 -5.19128917 0 0 0 Z " fill="#C9CDD7" transform="translate(188,47)"/>
<path d="M0 0 C5.625 -0.25 5.625 -0.25 9 2 C9 2.66 9 3.32 9 4 C6.1875 4.25 6.1875 4.25 3 4 C1.125 2 1.125 2 0 0 Z " fill="#CBCFD7" transform="translate(143,39)"/>
<path d="M0 0 C1.98 0 3.96 0 6 0 C5.67 0.99 5.34 1.98 5 3 C2.69 3.33 0.38 3.66 -2 4 C-1.34 2.68 -0.68 1.36 0 0 Z " fill="#CDD1DA" transform="translate(158,39)"/>
<path d="M0 0 C0.66 0 1.32 0 2 0 C2 1.32 2 2.64 2 4 C2.66 4 3.32 4 4 4 C4 4.66 4 5.32 4 6 C2.35 6 0.7 6 -1 6 C-1.625 4.125 -1.625 4.125 -2 2 C-1.34 1.34 -0.68 0.68 0 0 Z " fill="#CFD0D5" transform="translate(67,210)"/>
<path d="M0 0 C0.66 0 1.32 0 2 0 C2.25 2.3125 2.25 2.3125 2 5 C0 6.8125 0 6.8125 -2 8 C-2.125 5.125 -2.125 5.125 -2 2 C-1.34 1.34 -0.68 0.68 0 0 Z " fill="#D0D3DD" transform="translate(193,37)"/>
<path d="M0 0 C1.32 0 2.64 0 4 0 C3.67 1.65 3.34 3.3 3 5 C1.68 4.34 0.36 3.68 -1 3 C-0.67 2.01 -0.34 1.02 0 0 Z " fill="#AEB3C8" transform="translate(131,80)"/>
<path d="M0 0 C1.32 0.66 2.64 1.32 4 2 C3.67 2.99 3.34 3.98 3 5 C1.68 4.67 0.36 4.34 -1 4 C-0.67 2.68 -0.34 1.36 0 0 Z " fill="#ADB3C7" transform="translate(130,72)"/>
<path d="M0 0 C2.475 0.495 2.475 0.495 5 1 C4.34 2.32 3.68 3.64 3 5 C2.01 4.34 1.02 3.68 0 3 C0 2.01 0 1.02 0 0 Z " fill="#ABAFC2" transform="translate(107,67)"/>
<path d="M0 0 C0 1.32 0 2.64 0 4 C-1.32 4.33 -2.64 4.66 -4 5 C-4.33 3.68 -4.66 2.36 -5 1 C-2 0 -2 0 0 0 Z " fill="#ABAFC2" transform="translate(117,54)"/>
<path d="M0 0 C1.32 0 2.64 0 4 0 C4.33 0.99 4.66 1.98 5 3 C3.35 3.33 1.7 3.66 0 4 C0 2.68 0 1.36 0 0 Z " fill="#A6ACC8" transform="translate(208,91)"/>
<path d="M0 0 C0.99 0.33 1.98 0.66 3 1 C2.67 2.32 2.34 3.64 2 5 C0.68 4.34 -0.64 3.68 -2 3 C-1.34 2.01 -0.68 1.02 0 0 Z " fill="#A8AEC4" transform="translate(202,88)"/>
<path d="M0 0 C2.475 0.495 2.475 0.495 5 1 C4.67 1.99 4.34 2.98 4 4 C2.68 4 1.36 4 0 4 C0 2.68 0 1.36 0 0 Z " fill="#AAAEC4" transform="translate(194,75)"/>
<path d="M0 0 C1.32 0.66 2.64 1.32 4 2 C3.01 3.485 3.01 3.485 2 5 C1.01 4.67 0.02 4.34 -1 4 C-0.67 2.68 -0.34 1.36 0 0 Z " fill="#AEB3C8" transform="translate(152,50)"/>
<path d="M0 0 C1.32 0 2.64 0 4 0 C3.67 1.32 3.34 2.64 3 4 C1.68 3.67 0.36 3.34 -1 3 C-0.67 2.01 -0.34 1.02 0 0 Z " fill="#AFB4C6" transform="translate(214,86)"/>
<path d="M0 0 C1.32 0 2.64 0 4 0 C4 1.32 4 2.64 4 4 C2.68 4 1.36 4 0 4 C0 2.68 0 1.36 0 0 Z " fill="#A5ACC7" transform="translate(117,84)"/>
<path d="M0 0 C0.99 0 1.98 0 3 0 C3.33 1.32 3.66 2.64 4 4 C2.35 3.67 0.7 3.34 -1 3 C-0.67 2.01 -0.34 1.02 0 0 Z " fill="#A5A9C7" transform="translate(199,81)"/>
<path d="M0 0 C1.32 0 2.64 0 4 0 C4 1.32 4 2.64 4 4 C2.68 4 1.36 4 0 4 C0 2.68 0 1.36 0 0 Z " fill="#A9AEC3" transform="translate(214,78)"/>
<path d="M0 0 C0.99 0 1.98 0 3 0 C3.33 0.99 3.66 1.98 4 3 C3.01 3.66 2.02 4.32 1 5 C0.34 3.68 -0.32 2.36 -1 1 C-0.67 0.67 -0.34 0.34 0 0 Z " fill="#A6ACC7" transform="translate(163,75)"/>
<path d="M0 0 C1.32 0 2.64 0 4 0 C4 1.32 4 2.64 4 4 C2.68 4 1.36 4 0 4 C0 2.68 0 1.36 0 0 Z " fill="#A9AEC3" transform="translate(186,74)"/>
<path d="M0 0 C1.32 0 2.64 0 4 0 C4 1.32 4 2.64 4 4 C2.68 4 1.36 4 0 4 C0 2.68 0 1.36 0 0 Z " fill="#A9AEC3" transform="translate(178,74)"/>
<path d="M0 0 C1.32 0 2.64 0 4 0 C4 1.32 4 2.64 4 4 C2.68 4 1.36 4 0 4 C0 2.68 0 1.36 0 0 Z " fill="#A9AEC3" transform="translate(170,74)"/>
<path d="M0 0 C1.32 0 2.64 0 4 0 C4 1.32 4 2.64 4 4 C2.68 4 1.36 4 0 4 C0 2.68 0 1.36 0 0 Z " fill="#A9AEC3" transform="translate(214,70)"/>
<path d="M0 0 C1.32 0 2.64 0 4 0 C4 1.32 4 2.64 4 4 C2.68 4 1.36 4 0 4 C0 2.68 0 1.36 0 0 Z " fill="#A9AEC3" transform="translate(214,62)"/>
<path d="M0 0 C1.98 0.495 1.98 0.495 4 1 C3.67 1.99 3.34 2.98 3 4 C1.68 4 0.36 4 -1 4 C-0.67 2.68 -0.34 1.36 0 0 Z " fill="#A9AFC3" transform="translate(107,59)"/>
<path d="M0 0 C1.32 0 2.64 0 4 0 C4 1.32 4 2.64 4 4 C2.68 4 1.36 4 0 4 C0 2.68 0 1.36 0 0 Z " fill="#A7AFC2" transform="translate(137,54)"/>
<path d="M0 0 C1.32 0 2.64 0 4 0 C4 1.32 4 2.64 4 4 C2.68 4 1.36 4 0 4 C0 2.68 0 1.36 0 0 Z " fill="#A7AFC2" transform="translate(129,54)"/>
<path d="M0 0 C1.32 0 2.64 0 4 0 C4 1.32 4 2.64 4 4 C2.68 4 1.36 4 0 4 C0 2.68 0 1.36 0 0 Z " fill="#A7AFC2" transform="translate(121,54)"/>
<path d="M0 0 C0.99 0.99 1.98 1.98 3 3 C2.67 3.66 2.34 4.32 2 5 C0.68 4.67 -0.64 4.34 -2 4 C-1.34 2.68 -0.68 1.36 0 0 Z " fill="#A9AFC4" transform="translate(215,53)"/>
<path d="M0 0 C1.32 0 2.64 0 4 0 C4 1.32 4 2.64 4 4 C2.68 4 1.36 4 0 4 C0 2.68 0 1.36 0 0 Z " fill="#A6ACC7" transform="translate(207,50)"/>
<path d="M0 0 C1.32 0 2.64 0 4 0 C4 1.32 4 2.64 4 4 C2.68 4 1.36 4 0 4 C0 2.68 0 1.36 0 0 Z " fill="#A8AFC3" transform="translate(199,50)"/>
<path d="M0 0 C1.32 0.33 2.64 0.66 4 1 C4 1.99 4 2.98 4 4 C2.68 4 1.36 4 0 4 C0 2.68 0 1.36 0 0 Z " fill="#ABB1CB" transform="translate(158,81)"/>
<path d="M0 0 C1.32 0.33 2.64 0.66 4 1 C4 1.99 4 2.98 4 4 C2.68 4 1.36 4 0 4 C0 2.68 0 1.36 0 0 Z " fill="#A8AEC0" transform="translate(114,70)"/>
<path d="M0 0 C1.32 0.33 2.64 0.66 4 1 C4 1.99 4 2.98 4 4 C2.68 4 1.36 4 0 4 C0 2.68 0 1.36 0 0 Z " fill="#A9AFC4" transform="translate(145,54)"/>
<path d="M0 0 C0.99 0 1.98 0 3 0 C3.33 1.32 3.66 2.64 4 4 C2.68 4 1.36 4 0 4 C0 2.68 0 1.36 0 0 Z " fill="#A8AEC4" transform="translate(125,84)"/>
<path d="M0 0 C1.32 0 2.64 0 4 0 C4 0.99 4 1.98 4 3 C2.68 3 1.36 3 0 3 C0 2.01 0 1.02 0 0 Z " fill="#A9AFC3" transform="translate(158,90)"/>
<path d="M0 0 C1.32 0 2.64 0 4 0 C4 0.99 4 1.98 4 3 C2.68 3 1.36 3 0 3 C0 2.01 0 1.02 0 0 Z " fill="#A9AFC4" transform="translate(122,71)"/>
</svg>
